<?xml version="1.0" encoding="UTF-8" standalone="no"?>
<svg
   xmlns:dc="http://purl.org/dc/elements/1.1/"
   xmlns:cc="http://creativecommons.org/ns#"
   xmlns:rdf="http://www.w3.org/1999/02/22-rdf-syntax-ns#"
   xmlns:svg="http://www.w3.org/2000/svg"
   xmlns="http://www.w3.org/2000/svg"
   xmlns:sodipodi="http://sodipodi.sourceforge.net/DTD/sodipodi-0.dtd"
   xmlns:inkscape="http://www.inkscape.org/namespaces/inkscape"
   viewBox="0 0 45 45"
   style="enable-background:new 0 0 45 45;"
   xml:space="preserve"
   version="1.1"
   id="svg2"
   sodipodi:docname="scorpio2.svg"
   inkscape:version="0.92.1 r15371"><sodipodi:namedview
     pagecolor="#ffffff"
     bordercolor="#666666"
     borderopacity="1"
     objecttolerance="10"
     gridtolerance="10"
     guidetolerance="10"
     inkscape:pageopacity="0"
     inkscape:pageshadow="2"
     inkscape:window-width="640"
     inkscape:window-height="480"
     id="namedview5333"
     showgrid="false"
     inkscape:zoom="5.2444444"
     inkscape:cx="22.5"
     inkscape:cy="22.5"
     inkscape:window-x="0"
     inkscape:window-y="24"
     inkscape:window-maximized="0"
     inkscape:current-layer="g14" /><metadata
     id="metadata8"><rdf:RDF><cc:Work
         rdf:about=""><dc:format>image/svg+xml</dc:format><dc:type
           rdf:resource="http://purl.org/dc/dcmitype/StillImage" /><dc:title></dc:title></cc:Work></rdf:RDF></metadata><defs
     id="defs6"><clipPath
       id="clipPath16"
       clipPathUnits="userSpaceOnUse"><path
         id="path18"
         d="M 0,36 36,36 36,0 0,0 0,36 Z" /></clipPath></defs><g
     transform="matrix(1.25,0,0,-1.25,0,45)"
     id="g10"><g
       id="g12"><g
         clip-path="url(#clipPath16)"
         id="g14"><g
           transform="translate(36,4)"
           id="g20"
           style="fill:#004182;fill-opacity:1"><path
             id="path22"
             style="fill:#004182;fill-opacity:1;fill-rule:nonzero;stroke:none"
             d="m 0,0 c 0,-2.209 -1.791,-4 -4,-4 l -28,0 c -2.209,0 -4,1.791 -4,4 l 0,28 c 0,2.209 1.791,4 4,4 l 28,0 c 2.209,0 4,-1.791 4,-4 L 0,0 Z" /></g><g
           transform="translate(31.5,8)"
           id="g24"><path
             id="path26"
             style="fill:#ffffff;fill-opacity:1;fill-rule:nonzero;stroke:none"
             d="m 0,0 -5.5,4 0,-8 5.5,4 z" /></g><g
           transform="translate(27,9.5)"
           id="g28"><path
             id="path30"
             style="fill:#ffffff;fill-opacity:1;fill-rule:nonzero;stroke:none"
             d="m 0,0 c -3.842,0 -4,0.933 -4,4.5 l 0,11 c 0,3.979 -1.776,4.939 -3.268,5.291 -1.465,0.345 -2.971,-0.291 -4.024,-1.269 -0.595,0.751 -1.313,1.113 -1.976,1.269 -1.459,0.345 -2.959,-0.286 -4.011,-1.257 C -18.295,20.881 -19.607,21 -20,21 c -0.829,0 -1.5,-0.671 -1.5,-1.5 0,-0.829 0.671,-1.5 1.5,-1.5 0.155,0 1,-0.646 1,-3.5 l 0,-11 c 0,-0.828 0.671,-1.5 1.5,-1.5 0.829,0 1.5,0.672 1.5,1.5 0,0 0.006,12.81 0.006,13.086 0,0.83 0.672,1.502 1.502,1.502 0.829,0 1.502,-0.672 1.502,-1.502 C -12.99,16.371 -13,3.5 -13,3.5 -13,2.672 -12.329,2 -11.5,2 c 0.829,0 1.5,0.672 1.5,1.5 0,0 0.006,12.81 0.006,13.086 0,0.83 0.672,1.502 1.502,1.502 0.829,0 1.502,-0.672 1.502,-1.502 C -6.99,16.371 -7,4.5 -7,4.5 -7,0.548 -6.465,-3 0,-3 0.828,-3 1.5,-2.328 1.5,-1.5 1.5,-0.672 0.828,0 0,0" /></g></g></g></g></svg>